# xmcd
#
# Track frame offsets:
# 150
# 9579
# 20795
# 33527
# 43210
# 49954
# 64052
# 74841
# 84670
# 95411
# 106180
# 115123
# 128546
# 144399
#
# Disc length: 2065 seconds
#
#
# Revision: 7
# Processed by: cddbd v1.5.1PL2 Copyright (c) Steve Scherf et al.
# Submitted via: FreeRIP 2.943 
#
DISCID=c6080f0e
DTITLE=Eric Clapton - With Jimmy Page, John Mayalls Bluesbrakers and The Yardbirds
DYEAR=2001
DGENRE=Rock
TTITLE0=West Coast Idea
TTITLE1=Snake Drive
TTITLE2=Freight Loader (with Jimmy Page)
TTITLE3=Tribute to Elmore
TTITLE4=Choker (with Jimmy Page)
TTITLE5=Dragging my Tail (with Jimmy Page)
TTITLE6=Miles Road (with Jimmy Page)
TTITLE7=I'm Your Witch/Doctor (with John Mayall and His Bluesbreakers)
TTITLE8=Boom Boom (w/ Yardbirds)
TTITLE9=Honey in Your Hips (w/ Yardbirds)
TTITLE10=Talkin' About You (w/ Yardbirds)
TTITLE11=You Can't Judge a Book By Lookin' At the Cover (w/Yardbirds)
TTITLE12=Louise (w/ Yardbirds)
TTITLE13=Putty (In Your Hands) (w/Yardbirds)
EXTD=YEAR: 2001
EXTT0=
EXTT1=
EXTT2=
EXTT3=
EXTT4=
EXTT5=
EXTT6=
EXTT7=
EXTT8=
EXTT9=
EXTT10=
EXTT11=
EXTT12=
EXTT13=
PLAYORDER=
